<svg width="16" height="16" viewBox="0 0 16 16" fill="none" xmlns="http://www.w3.org/2000/svg">
<path d="M15 4.97V10L8 11L1 10V4.97C1 4.435 1.435 4 1.97 4H14.03C14.57 4 15 4.435 15 4.97Z" fill="#E6E6E6"/>
<path d="M3 9.07V5.43C3 5.195 2.79 5 2.535 5H1V9.5H2.535C2.79 9.5 3 9.305 3 9.07ZM4.465 5H6.54C6.795 5 7 5.195 7.005 5.43V9.065C7.005 9.3 6.795 9.495 6.54 9.495H4.465C4.21 9.495 4 9.305 4 9.065V5.43C4 5.195 4.21 5 4.465 5ZM10.04 5H7.965C7.71 5 7.5 5.195 7.5 5.43V9.065C7.5 9.305 7.71 9.495 7.965 9.495H10.04C10.295 9.495 10.505 9.3 10.505 9.065V5.43C10.5 5.195 10.295 5 10.04 5ZM11.465 5H13.54C13.795 5 14 5.195 14.005 5.43V9.065C14.005 9.3 13.795 9.495 13.54 9.495H11.465C11.21 9.495 11 9.305 11 9.065V5.43C11 5.195 11.21 5 11.465 5Z" fill="#26C9FC"/>
<path d="M15 10V12.53C15 13.065 14.565 13.5 14.03 13.5H1.97C1.435 13.5 1 13.065 1 12.53V10H15Z" fill="#FFB02E"/>
<path d="M1 5H2.535C2.79 5 3 5.195 3 5.43V6H1V5ZM3.26 8.5H3.065C2.755 8.5 2.5 8.25 2.5 7.935V7.065C2.5 6.755 2.755 6.5 3.065 6.5H3.26C3.39 6.5 3.5 6.605 3.5 6.74V8.26C3.5 8.39 3.395 8.5 3.26 8.5ZM6.015 13.25C6.015 13.7141 5.83063 14.1592 5.50244 14.4874C5.17425 14.8156 4.72913 15 4.265 15C3.80087 15 3.35575 14.8156 3.02756 14.4874C2.69937 14.1592 2.515 13.7141 2.515 13.25C2.515 12.7859 2.69937 12.3408 3.02756 12.0126C3.35575 11.6844 3.80087 11.5 4.265 11.5C4.72913 11.5 5.17425 11.6844 5.50244 12.0126C5.83063 12.3408 6.015 12.7859 6.015 13.25ZM11.755 15C12.2191 15 12.6642 14.8156 12.9924 14.4874C13.3206 14.1592 13.505 13.7141 13.505 13.25C13.505 12.7859 13.3206 12.3408 12.9924 12.0126C12.6642 11.6844 12.2191 11.5 11.755 11.5C11.2909 11.5 10.8458 11.6844 10.5176 12.0126C10.1894 12.3408 10.005 12.7859 10.005 13.25C10.005 13.7141 10.1894 14.1592 10.5176 14.4874C10.8458 14.8156 11.2909 15 11.755 15Z" fill="#212121"/>
<path d="M15 10.5H14.75C14.325 10.5 13.98 10.855 14 11.285C14.02 11.69 14.37 12 14.775 12H15V10.5Z" fill="#F92F60"/>
<path d="M1.455 12.5H1V10.5H1.455C1.755 10.5 2 10.745 2 11.045V11.955C2 12.255 1.76 12.5 1.455 12.5Z" fill="#FFF478"/>
<path d="M5 13.25C5 13.4489 4.92098 13.6397 4.78033 13.7803C4.63968 13.921 4.44891 14 4.25 14C4.05109 14 3.86032 13.921 3.71967 13.7803C3.57902 13.6397 3.5 13.4489 3.5 13.25C3.5 13.0511 3.57902 12.8603 3.71967 12.7197C3.86032 12.579 4.05109 12.5 4.25 12.5C4.44891 12.5 4.63968 12.579 4.78033 12.7197C4.92098 12.8603 5 13.0511 5 13.25ZM12.5 13.25C12.5 13.3485 12.4806 13.446 12.4429 13.537C12.4052 13.628 12.35 13.7107 12.2803 13.7803C12.2107 13.85 12.128 13.9052 12.037 13.9429C11.946 13.9806 11.8485 14 11.75 14C11.6515 14 11.554 13.9806 11.463 13.9429C11.372 13.9052 11.2893 13.85 11.2197 13.7803C11.15 13.7107 11.0948 13.628 11.0571 13.537C11.0194 13.446 11 13.3485 11 13.25C11 13.0511 11.079 12.8603 11.2197 12.7197C11.3603 12.579 11.5511 12.5 11.75 12.5C11.9489 12.5 12.1397 12.579 12.2803 12.7197C12.421 12.8603 12.5 13.0511 12.5 13.25Z" fill="#D3D3D3"/>
</svg>
