<svg width="24" height="24" viewBox="0 0 24 24" fill="none" xmlns="http://www.w3.org/2000/svg">
<path d="M17.739 10.564L17.003 15.347H6.997L6.261 10.564H17.739Z" fill="#C2F3FF"/>
<path d="M17.625 11.283L17.003 15.348H6.99799L6.37599 11.283C6.87437 12.3546 7.66852 13.2616 8.66495 13.8971C9.66139 14.5326 10.8186 14.8702 12.0005 14.8702C13.1823 14.8702 14.3396 14.5326 15.336 13.8971C16.3325 13.2616 17.1266 12.3546 17.625 11.283Z" fill="#66E1FF"/>
<path d="M17.003 15.348L15.883 22.598C15.8674 22.7105 15.8112 22.8135 15.725 22.8875C15.6389 22.9616 15.5286 23.0016 15.415 23H8.58499C8.47139 23.0016 8.36113 22.9616 8.27494 22.8875C8.18876 22.8135 8.13259 22.7105 8.11699 22.598L6.99699 15.348H17.003Z" fill="#E3BFB3"/>
<path d="M12 19.99C11.0417 19.9898 10.1007 19.7352 9.27309 19.252C8.44553 18.7688 7.76117 18.0745 7.28999 17.24L8.11599 22.596C8.13244 22.7085 8.18913 22.8113 8.27556 22.8852C8.36198 22.9591 8.47228 22.9992 8.58599 22.998H15.415C15.5284 22.9987 15.6382 22.9584 15.7242 22.8845C15.8102 22.8107 15.8666 22.7082 15.883 22.596L16.711 17.24C16.2397 18.0746 15.5552 18.769 14.7275 19.2522C13.8997 19.7354 12.9585 19.99 12 19.99Z" fill="#C77F67"/>
<path d="M17.003 15.348L15.883 22.598C15.8674 22.7105 15.8112 22.8135 15.725 22.8875C15.6389 22.9616 15.5286 23.0016 15.415 23H8.58499C8.47139 23.0016 8.36113 22.9616 8.27494 22.8875C8.18876 22.8135 8.13259 22.7105 8.11699 22.598L6.99699 15.348H17.003Z" stroke="#191919" stroke-linecap="round" stroke-linejoin="round"/>
<path d="M17.739 10.565H6.26099C6.24676 9.80233 6.38468 9.04447 6.66669 8.33572C6.94871 7.62696 7.36917 6.98153 7.9035 6.43713C8.43782 5.89274 9.0753 5.4603 9.77867 5.16511C10.482 4.86991 11.2372 4.71786 12 4.71786C12.7628 4.71786 13.518 4.86991 14.2213 5.16511C14.9247 5.4603 15.5622 5.89274 16.0965 6.43713C16.6308 6.98153 17.0513 7.62696 17.3333 8.33572C17.6153 9.04447 17.7532 9.80233 17.739 10.565Z" fill="#C2F3FF"/>
<path d="M20.13 10.564H17.74M6.26 10.564H3.87M10.087 21.087L14.137 1.765C14.1666 1.62157 14.2287 1.48683 14.3185 1.37114C14.4084 1.25546 14.5235 1.16191 14.6551 1.09769C14.7868 1.03347 14.9314 1.00028 15.0778 1.00068C15.2243 1.00108 15.3687 1.03506 15.5 1.1L19.173 2.936" stroke="#191919" stroke-linecap="round" stroke-linejoin="round"/>
<path d="M17.739 10.564L17.003 15.347H6.997L6.261 10.564H17.739Z" stroke="#191919" stroke-linecap="round" stroke-linejoin="round"/>
<path d="M6.26099 10.565H17.739C17.7532 9.80233 17.6153 9.04447 17.3333 8.33572C17.0513 7.62696 16.6308 6.98152 16.0965 6.43713C15.5622 5.89274 14.9247 5.4603 14.2213 5.16511C13.518 4.86991 12.7628 4.71786 12 4.71786C11.2372 4.71786 10.482 4.86991 9.77867 5.16511C9.0753 5.4603 8.43782 5.89274 7.9035 6.43713C7.36917 6.98152 6.94871 7.62696 6.66669 8.33572C6.38468 9.04447 6.24676 9.80233 6.26099 10.565Z" stroke="#191919" stroke-linecap="round" stroke-linejoin="round"/>
</svg>
