<svg width="16" height="16" viewBox="0 0 16 16" fill="none" xmlns="http://www.w3.org/2000/svg">
<path d="M3.995 5.005H12.01C12.28 5.005 12.5 4.785 12.505 4.51V1.995C12.505 1.72 12.28 1.5 12.01 1.5H3.995C3.72 1.5 3.5 1.725 3.5 1.995V4.51C3.5 4.785 3.725 5.005 3.995 5.005ZM1.5 6.005H14.5V14.005H1.5V6.005Z" fill="#D3D3D3"/>
<path d="M11.5 2.25V4.26C11.5 4.395 11.39 4.505 11.255 4.505H11.245C11.18 4.505 11.1177 4.47919 11.0718 4.43324C11.0258 4.38729 11 4.32498 11 4.26V3.51H10V4.26C10 4.395 9.89001 4.505 9.75501 4.505H9.74501C9.68003 4.505 9.61771 4.47919 9.57177 4.43324C9.52582 4.38729 9.50001 4.32498 9.50001 4.26V2.25C9.50001 2.115 9.61001 2.005 9.74501 2.005H9.75501C9.89001 2.005 10 2.115 10 2.25V3.005H11V2.25C11 2.115 11.11 2.005 11.245 2.005H11.255C11.39 2.005 11.5 2.115 11.5 2.25ZM6.07001 4.505C6.24501 4.505 6.33501 4.415 6.33501 4.24C6.33501 4.065 6.24001 4 6.06501 4H5.37001L5.77501 3.585C5.93501 3.43 6.04501 3.285 6.11501 3.145C6.18001 3.01 6.21501 2.87 6.21501 2.72C6.21501 2.485 6.14001 2.31 5.99001 2.185C5.84001 2.06 5.62001 2 5.34001 2C5.22501 2 5.10501 2.015 4.99001 2.04C4.87501 2.065 4.76501 2.11 4.65501 2.165C4.59501 2.195 4.55001 2.24 4.53001 2.29C4.50501 2.34 4.49501 2.36 4.50501 2.41C4.51501 2.46 4.53501 2.505 4.56501 2.545C4.59501 2.585 4.64001 2.61 4.69001 2.625C4.74001 2.64 4.80001 2.63 4.86001 2.6C4.97593 2.53385 5.10656 2.49775 5.24001 2.495C5.46501 2.495 5.58501 2.615 5.58501 2.79C5.58501 2.86 5.56501 2.93 5.52501 3C5.48501 3.07 5.42001 3.155 5.33001 3.25L4.71001 3.91C4.66001 3.96 4.62501 4.01 4.59501 4.06C4.56501 4.11 4.56001 4.15 4.56001 4.215C4.56001 4.31 4.58501 4.38 4.63001 4.425C4.67501 4.475 4.75001 4.495 4.85001 4.495H6.07001V4.505ZM8.50501 3.765C8.49501 3.9 8.38001 4 8.24501 4H7.99501V4.245C7.99501 4.38 7.89501 4.495 7.76001 4.505C7.72587 4.50735 7.69161 4.5026 7.6594 4.49107C7.62718 4.47954 7.5977 4.46146 7.57281 4.43798C7.54792 4.4145 7.52816 4.38612 7.51477 4.35463C7.50138 4.32314 7.49465 4.28922 7.49501 4.255V4H6.74001C6.69501 4 6.65501 3.985 6.61501 3.965C6.61001 3.96 6.60501 3.965 6.60001 3.96L6.58501 3.945C6.57059 3.93645 6.55856 3.92442 6.55001 3.91C6.54001 3.895 6.53001 3.885 6.52501 3.87C6.52001 3.855 6.51001 3.845 6.51001 3.825C6.50455 3.80883 6.50119 3.79203 6.50001 3.775C6.50001 3.765 6.49501 3.76 6.49501 3.75C6.49501 3.74 6.50001 3.735 6.50001 3.73C6.50001 3.715 6.50501 3.695 6.51001 3.68C6.51501 3.665 6.52001 3.65 6.53001 3.635C6.53501 3.63 6.53501 3.62 6.54001 3.615L7.54501 2.115L7.56001 2.1C7.57001 2.085 7.58001 2.075 7.59501 2.065C7.61001 2.055 7.62001 2.045 7.63501 2.04C7.65001 2.03 7.66501 2.025 7.68001 2.02C7.69501 2.015 7.71001 2.01 7.73001 2.01C7.74001 2.01 7.74501 2.005 7.75501 2.005C7.76501 2.005 7.77001 2.01 7.78001 2.01C7.79501 2.01 7.81001 2.015 7.82501 2.02C7.84001 2.025 7.85501 2.03 7.87001 2.04C7.87501 2.045 7.88501 2.045 7.89001 2.05L7.90501 2.065C7.92001 2.075 7.93001 2.085 7.94001 2.1C7.95001 2.115 7.96001 2.125 7.96501 2.14C7.97001 2.155 7.98001 2.165 7.98001 2.185C7.98501 2.2 7.99001 2.22 7.99001 2.235C7.99001 2.245 7.99501 2.25 7.99501 2.26V3.51H8.25001C8.40001 3.5 8.51501 3.62 8.50501 3.765ZM7.50001 3.5V3.075L7.21501 3.5H7.50001Z" fill="#533566"/>
<path d="M5 5.005H5.5V6.005H5V5.005ZM10.5 5.005H11V6.005H10.5V5.005Z" fill="#433B6B"/>
<path d="M7 14.005H2.5V9.3C2.5 9.135 2.63 9.005 2.795 9.005H6.705C6.87 9.005 7 9.135 7 9.3V14.005Z" fill="#635994"/>
<path d="M6.5 9.78V13.23C6.5 13.38 6.375 13.505 6.225 13.505H5.28C5.13 13.505 5.005 13.38 5.005 13.23V9.78C5.005 9.63 5.13 9.505 5.28 9.505H6.225C6.375 9.505 6.5 9.63 6.5 9.78ZM4.5 9.78V13.23C4.5 13.38 4.375 13.505 4.225 13.505H3.28C3.13 13.505 3.005 13.38 3.005 13.23V9.78C3.005 9.63 3.13 9.505 3.28 9.505H4.225C4.375 9.505 4.5 9.63 4.5 9.78ZM8.745 12.005H12.76C12.89 12.005 13 11.895 13.005 11.76V10.245C13.005 10.18 12.9792 10.1177 12.9332 10.0718C12.8873 10.0258 12.825 10 12.76 10H8.745C8.68003 10 8.61771 10.0258 8.57176 10.0718C8.52582 10.1177 8.5 10.18 8.5 10.245V11.76C8.5 11.895 8.61 12.005 8.745 12.005Z" fill="#83CBFF"/>
<path d="M14.62 8.005H1.385C1.28289 8.005 1.18497 7.96444 1.11276 7.89224C1.04056 7.82003 1 7.72211 1 7.62V6.385C1 6.175 1.17 6 1.385 6H14.62C14.83 6 15.005 6.17 15.005 6.385V7.62C15 7.835 14.83 8.005 14.62 8.005Z" fill="#F8312F"/>
</svg>
