<svg width="52" height="41" viewBox="0 0 52 41" fill="none" xmlns="http://www.w3.org/2000/svg">
<g clip-path="url(#clip0_165_37)">
<path d="M44.0001 24V39C44.0001 39.5417 43.8021 40.0104 43.4063 40.4062C43.0105 40.8021 42.5417 41 42.0001 41H30.0001V29H22.0001V41H10.0001C9.45839 41 8.98964 40.8021 8.5938 40.4062C8.19797 40.0104 8.00005 39.5417 8.00005 39V24C8.00005 23.9792 8.00526 23.9479 8.01568 23.9062C8.0261 23.8646 8.0313 23.8333 8.0313 23.8125L26.0001 9L43.9688 23.8125C43.9896 23.8542 44.0001 23.9167 44.0001 24ZM50.9688 21.8438L49.0313 24.1562C48.8646 24.3438 48.6459 24.4583 48.3751 24.5H48.2813C48.0105 24.5 47.7917 24.4271 47.6251 24.2812L26.0001 6.25L4.37505 24.2812C4.12505 24.4479 3.87505 24.5208 3.62505 24.5C3.35422 24.4583 3.13547 24.3438 2.9688 24.1562L1.0313 21.8438C0.864638 21.6354 0.791721 21.3906 0.812554 21.1094C0.833388 20.8281 0.947971 20.6042 1.1563 20.4375L23.6251 1.71875C24.2917 1.17708 25.0834 0.90625 26.0001 0.90625C26.9167 0.90625 27.7084 1.17708 28.3751 1.71875L36.0001 8.09375V2C36.0001 1.70833 36.0938 1.46875 36.2813 1.28125C36.4688 1.09375 36.7084 1 37.0001 1H43.0001C43.2917 1 43.5313 1.09375 43.7188 1.28125C43.9063 1.46875 44.0001 1.70833 44.0001 2V14.75L50.8438 20.4375C51.0521 20.6042 51.1667 20.8281 51.1876 21.1094C51.2084 21.3906 51.1355 21.6354 50.9688 21.8438Z" fill="black"/>
</g>
<defs>
<clipPath id="clip0_165_37">
<rect width="52" height="41" fill="white"/>
</clipPath>
</defs>
</svg>
