<svg width="14" height="14" viewBox="0 0 14 14" fill="none" xmlns="http://www.w3.org/2000/svg">
<g clip-path="url(#clip0_154_8)">
<path fill-rule="evenodd" clip-rule="evenodd" d="M3.65602 0.0639879C4.05602 -1.20774e-05 4.52302 -0.0370121 4.92602 0.0569879L4.93802 0.0599879L8.45602 0.969988C8.56547 0.998986 8.68165 0.98836 8.78402 0.939988L8.88502 0.891988C9.32702 0.679988 9.82702 0.439988 10.277 0.315988C10.65 0.212988 11.209 0.0669879 11.744 0.0179879C12.095 -0.0150121 12.355 0.177988 12.503 0.327988C12.763 0.590988 12.906 0.906988 12.995 1.19999C13.069 1.44199 13.115 1.69999 13.153 1.91799C13.424 3.36838 13.5303 4.84473 13.47 6.31899C12.8291 5.85605 12.0727 5.57917 11.2843 5.51887C10.496 5.45857 9.7063 5.61721 9.0024 5.97728C8.29849 6.33735 7.70773 6.88486 7.29528 7.55941C6.88283 8.23396 6.66472 9.00933 6.66502 9.79999C6.66502 10.44 6.79902 11.042 7.02202 11.6L4.92502 11.057C4.85319 11.0369 4.77737 11.0359 4.70502 11.054C4.33902 11.154 3.96002 11.289 3.55502 11.433C3.37769 11.4963 3.19435 11.5607 3.00502 11.626C2.92769 11.652 2.84802 11.68 2.76602 11.71C2.45702 11.82 2.11602 11.94 1.79002 12.002C1.45502 12.066 1.19102 11.908 1.03502 11.77C0.73502 11.505 0.58202 11.167 0.49002 10.86C0.424332 10.6233 0.373236 10.3829 0.33702 10.14C-0.105568 7.7524 -0.114037 5.30458 0.31202 2.91399L0.36202 2.63599C0.42202 2.29599 0.49902 1.87099 0.70102 1.47899C0.761394 1.35867 0.833761 1.24476 0.91702 1.13899C1.01755 1.00764 1.14642 0.900649 1.29402 0.825988C1.69402 0.634988 2.13802 0.428988 2.54802 0.315988C2.84102 0.234988 3.24302 0.129988 3.65602 0.0639879Z" fill="#8FBFFA"/>
<path fill-rule="evenodd" clip-rule="evenodd" d="M10.958 6.759C10.5585 6.75873 10.1629 6.8372 9.79381 6.98992C9.42469 7.14264 9.08928 7.36662 8.80676 7.64904C8.52425 7.93146 8.30017 8.26679 8.14733 8.63587C7.99449 9.00494 7.91588 9.40053 7.91602 9.8C7.91602 10.975 8.58702 12.016 9.22102 12.726C9.54602 13.089 9.87902 13.386 10.152 13.596C10.288 13.701 10.416 13.788 10.525 13.852C10.5783 13.8847 10.6337 13.9133 10.691 13.938C10.7752 13.9754 10.8659 13.9958 10.958 13.998C11.083 13.998 11.188 13.955 11.225 13.938C11.2817 13.9133 11.3373 13.8847 11.392 13.852C11.501 13.788 11.628 13.701 11.764 13.596C12.038 13.386 12.371 13.089 12.694 12.726C13.33 12.017 14 10.976 14 9.8C14.0003 9.40044 13.9218 9.00475 13.769 8.63556C13.6162 8.26637 13.3921 7.93092 13.1096 7.64839C12.8271 7.36586 12.4916 7.1418 12.1224 6.98902C11.7533 6.83624 11.3576 6.75873 10.958 6.759Z" fill="#2859C5"/>
<path fill-rule="evenodd" clip-rule="evenodd" d="M10.958 9.07501C11.303 9.07501 11.583 9.35501 11.583 9.70001V9.85101C11.583 10.0168 11.5172 10.1757 11.3999 10.293C11.2827 10.4102 11.1238 10.476 10.958 10.476C10.7922 10.476 10.6333 10.4102 10.5161 10.293C10.3989 10.1757 10.333 10.0168 10.333 9.85101V9.70001C10.333 9.35501 10.613 9.07501 10.958 9.07501Z" fill="#8FBFFA"/>
<path fill-rule="evenodd" clip-rule="evenodd" d="M8.885 0.891991L8.995 0.839991V5.98299C8.29304 6.34353 7.70412 6.8907 7.29304 7.56431C6.88196 8.23791 6.66464 9.01185 6.665 9.80099C6.665 10.439 6.8 11.042 7.022 11.6L4.925 11.057C4.85308 11.0373 4.77726 11.0366 4.705 11.055L4.495 11.115V0.00299072C4.643 0.00832406 4.78666 0.0266574 4.926 0.0579907L4.937 0.0609907L8.456 0.970991C8.56513 0.999745 8.68091 0.989123 8.783 0.940991L8.885 0.891991Z" fill="#2859C5"/>
</g>
<defs>
<clipPath id="clip0_154_8">
<rect width="14" height="14" fill="white"/>
</clipPath>
</defs>
</svg>
