<svg width="20" height="20" viewBox="0 0 20 20" fill="none" xmlns="http://www.w3.org/2000/svg">
<path fill-rule="evenodd" clip-rule="evenodd" d="M4.95825 9.5625C4.70525 9.5625 4.5 9.7675 4.5 10.0208V16.6042C4.5 16.8572 4.705 17.0625 4.95825 17.0625H15.0417C15.2947 17.0625 15.5 16.8575 15.5 16.6042V10.0208C15.5 9.76775 15.295 9.5625 15.0417 9.5625H4.95825ZM10.75 14.0625C10.652 14.1631 10.535 14.2432 10.4057 14.2983C10.2765 14.3533 10.1376 14.3821 9.99714 14.383C9.85668 14.3839 9.71744 14.3569 9.5875 14.3036C9.45755 14.2503 9.3395 14.1716 9.24018 14.0723C9.14085 13.973 9.06225 13.8549 9.00892 13.725C8.95559 13.5951 8.9286 13.4558 8.92951 13.3154C8.93043 13.1749 8.95923 13.036 9.01424 12.9068C9.06926 12.7775 9.14939 12.6605 9.25 12.5625C9.44979 12.3678 9.71821 12.2597 9.99714 12.2615C10.2761 12.2633 10.5431 12.375 10.7403 12.5722C10.9375 12.7694 11.0492 13.0364 11.051 13.3154C11.0528 13.5943 10.9447 13.8627 10.75 14.0625Z" fill="#F2C94C"/>
<path fill-rule="evenodd" clip-rule="evenodd" d="M10 3.5625C7.86 3.5625 6.125 5.2975 6.125 7.4375V9.5625H7.125V7.4375C7.125 5.84975 8.41225 4.5625 10 4.5625C11.5877 4.5625 12.875 5.84975 12.875 7.4375V9.5625H13.875V7.4375C13.875 5.2975 12.14 3.5625 10 3.5625Z" fill="#828282"/>
</svg>
