<svg width="16" height="16" viewBox="0 0 16 16" fill="none" xmlns="http://www.w3.org/2000/svg">
<path fill-rule="evenodd" clip-rule="evenodd" d="M4 2C3.90722 2 3.81627 2.02582 3.73733 2.07456C3.65839 2.12331 3.59456 2.19305 3.553 2.276L2.053 5.276C2.01815 5.34553 2.00001 5.42223 2 5.5V7.5C2 7.63261 2.05268 7.75979 2.14645 7.85355C2.24021 7.94732 2.36739 8 2.5 8H3V13.5C3 13.6326 3.05268 13.7598 3.14645 13.8536C3.24021 13.9473 3.36739 14 3.5 14H12.5C12.6326 14 12.7598 13.9473 12.8536 13.8536C12.9473 13.7598 13 13.6326 13 13.5V8H13.5C13.6326 8 13.7598 7.94732 13.8536 7.85355C13.9473 7.75979 14 7.63261 14 7.5V5.5C14 5.42223 13.9818 5.34553 13.947 5.276L12.447 2.276C12.4054 2.19305 12.3416 2.12331 12.2627 2.07456C12.1837 2.02582 12.0928 2 12 2H4ZM13 5.618V7H11V6H10V7H8.5V6H7.5V7H6V6H5V7H3V5.618L4.309 3H11.691L13 5.618ZM6.5 10H7.5V9H6.5V10ZM8.5 10H9.5V9H8.5V10ZM7.5 11.5H6.5V10.5H7.5V11.5ZM8.5 11.5H9.5V10.5H8.5V11.5Z" fill="black"/>
</svg>
