<svg width="16" height="16" viewBox="0 0 16 16" fill="none" xmlns="http://www.w3.org/2000/svg">
<g clip-path="url(#clip0_264_36)">
<path d="M15.948 14.23C15.9482 14.4558 15.9038 14.6795 15.8175 14.8882C15.7312 15.0969 15.6046 15.2865 15.4449 15.4462C15.2853 15.606 15.0957 15.7327 14.8871 15.8191C14.6785 15.9056 14.4548 15.95 14.229 15.95H1.719C1.26309 15.9496 0.825988 15.7682 0.503749 15.4457C0.181511 15.1232 0.000503367 14.6859 0.00050354 14.23V1.72C0.000636042 1.26424 0.181726 0.827188 0.503972 0.504896C0.826217 0.182604 1.26325 0.00145002 1.719 0.00125122H14.229C15.179 0.00125122 15.948 0.771251 15.948 1.72V14.23Z" fill="#1B75BB"/>
<path d="M3.94724 3.59986C4.54137 3.59986 5.023 3.11823 5.023 2.52411C5.023 1.92999 4.54137 1.44836 3.94724 1.44836C3.35312 1.44836 2.87149 1.92999 2.87149 2.52411C2.87149 3.11823 3.35312 3.59986 3.94724 3.59986Z" fill="white"/>
<path d="M6.40982 5.14221C6.40345 4.53776 5.94817 3.98374 5.41254 3.89136C5.30614 3.87296 5.19837 3.86374 5.0904 3.86379C4.7487 3.86285 4.30214 3.86403 3.94583 3.86403C3.58953 3.86403 3.14344 3.86308 2.80221 3.86379C2.69416 3.86373 2.58631 3.87295 2.47984 3.89136C1.94444 3.98374 1.48869 4.53776 1.48185 5.14221C1.4703 6.28347 1.47596 7.42497 1.47525 8.56647C1.47525 8.60771 1.47785 8.65013 1.4828 8.69113C1.50683 8.87518 1.62843 9.00573 1.79904 9.0333C1.93808 9.05569 2.09856 8.94847 2.15063 8.78186C2.17561 8.70127 2.18292 8.60983 2.18292 8.52358C2.18559 7.51185 2.18559 6.50027 2.18292 5.48885C2.18198 5.36018 2.21285 5.29656 2.33704 5.31117C2.4108 5.31942 2.48715 5.31871 2.56161 5.31117C2.6686 5.3008 2.70347 5.35759 2.69853 5.46646C2.69593 5.51289 2.69853 5.55931 2.69853 5.6055V13.917C2.69853 14.0001 2.699 14.0838 2.70348 14.1672C2.71502 14.397 2.84958 14.5933 3.04399 14.6675C3.38475 14.799 3.73021 14.5214 3.73092 14.1109C3.73257 12.5377 3.73186 10.9645 3.73186 9.39079C3.73186 9.12261 3.8174 9.02953 3.9456 9.00125C4.07403 9.02953 4.1591 9.12261 4.1591 9.39079C4.15957 10.9638 4.1591 12.537 4.16004 14.1109C4.16099 14.5214 4.50739 14.7988 4.84791 14.6675C5.04185 14.5931 5.17618 14.397 5.18867 14.1672C5.19314 14.0838 5.19314 14.0001 5.19314 13.917C5.19409 11.1466 5.19362 8.37654 5.19362 5.6055C5.19362 5.55908 5.19574 5.51289 5.19362 5.46646C5.1882 5.35759 5.22331 5.3008 5.33053 5.31117C5.40429 5.31871 5.48088 5.31942 5.55487 5.31117C5.6793 5.29656 5.70922 5.36018 5.70922 5.48885C5.70592 6.50027 5.70663 7.51169 5.70828 8.52358C5.70875 8.61007 5.71606 8.70127 5.74104 8.78186C5.79288 8.9487 5.95359 9.05569 6.09263 9.0333C6.26324 9.00549 6.38531 8.87518 6.40817 8.69113C6.41367 8.64981 6.41643 8.60816 6.41642 8.56647C6.41571 7.42474 6.42254 6.28323 6.40982 5.14221Z" fill="white"/>
<path d="M12.0367 3.59869C12.632 3.59869 13.1146 3.11606 13.1146 2.52072C13.1146 1.92537 12.632 1.44275 12.0367 1.44275C11.4413 1.44275 10.9587 1.92537 10.9587 2.52072C10.9587 3.11606 11.4413 3.59869 12.0367 3.59869Z" fill="white"/>
<path d="M14.7419 7.68602C14.5131 6.7429 14.2796 5.80102 14.0472 4.85935C13.9003 4.26258 13.4732 3.86859 12.9674 3.86217V3.86155H11.118C10.6068 3.86176 10.1747 4.25802 10.0259 4.85935C9.79352 5.80123 9.55986 6.74228 9.33138 7.68602C9.29829 7.82444 9.27954 7.96591 9.27545 8.10818C9.27193 8.27803 9.35458 8.39383 9.48197 8.45763C9.6162 8.52516 9.74028 8.48704 9.83142 8.35861C9.88859 8.27762 9.93002 8.17094 9.95529 8.06675C10.1577 7.24501 10.3511 6.41955 10.5544 5.59782C10.6335 5.27944 10.5691 5.31735 10.8659 5.31548C11.0341 5.31465 11.0372 5.31983 10.9918 5.51848C10.6795 6.90012 10.3663 8.28176 10.0547 9.6634C10.0112 9.85708 9.96834 10.0532 9.92257 10.2645H10.8081V14.1178C10.8081 14.4353 11.0233 14.6926 11.2874 14.6926C11.5519 14.6926 11.7668 14.4353 11.7668 14.1178V10.2647H12.3151V14.118C12.3151 14.4356 12.5303 14.6928 12.7944 14.6928C13.0589 14.6928 13.2737 14.4356 13.2737 14.118V10.2647H14.1514C14.1054 10.0532 14.0631 9.85708 14.0192 9.66361C13.7069 8.28135 13.3937 6.89971 13.0817 5.51869C13.037 5.32004 13.0396 5.31465 13.2081 5.31569C13.5051 5.31735 13.4405 5.27965 13.5198 5.59802C13.7224 6.41997 13.9165 7.24522 14.1182 8.06696C14.1437 8.17115 14.1849 8.27783 14.2427 8.35882C14.3339 8.48704 14.4577 8.52536 14.592 8.45783C14.7194 8.39403 14.802 8.27845 14.7985 8.10838C14.795 7.96603 14.7764 7.82444 14.743 7.68602" fill="white"/>
<path d="M7.97425 1.24225V14.5972" stroke="white" stroke-width="0.25" stroke-linecap="round"/>
</g>
<defs>
<clipPath id="clip0_264_36">
<rect width="16" height="16" fill="white"/>
</clipPath>
</defs>
</svg>
