<svg width="24" height="24" viewBox="0 0 24 24" fill="none" xmlns="http://www.w3.org/2000/svg">
<path d="M17.293 13.5C17.4308 13.0119 17.5005 12.5072 17.5 12C17.5 8.9625 15.0375 6.5 12 6.5C8.9625 6.5 6.5 8.9625 6.5 12C6.49952 12.5072 6.56918 13.0119 6.707 13.5H17.293Z" fill="#D9D9D9"/>
<path d="M17.293 13.5C17.4308 13.0119 17.5005 12.5072 17.5 12C17.5 8.9625 15.0375 6.5 12 6.5C8.9625 6.5 6.5 8.9625 6.5 12C6.49952 12.5072 6.56918 13.0119 6.707 13.5H17.293Z" fill="url(#paint0_linear_154_14)"/>
<path d="M2 13.75C2 13.5511 2.07902 13.3603 2.21967 13.2197C2.36032 13.079 2.55109 13 2.75 13H21.25C21.4489 13 21.6397 13.079 21.7803 13.2197C21.921 13.3603 22 13.5511 22 13.75C22 13.9489 21.921 14.1397 21.7803 14.2803C21.6397 14.421 21.4489 14.5 21.25 14.5H2.75C2.55109 14.5 2.36032 14.421 2.21967 14.2803C2.07902 14.1397 2 13.9489 2 13.75Z" fill="#C55D5D"/>
<path d="M2 13.75C2 13.5511 2.07902 13.3603 2.21967 13.2197C2.36032 13.079 2.55109 13 2.75 13H21.25C21.4489 13 21.6397 13.079 21.7803 13.2197C21.921 13.3603 22 13.5511 22 13.75C22 13.9489 21.921 14.1397 21.7803 14.2803C21.6397 14.421 21.4489 14.5 21.25 14.5H2.75C2.55109 14.5 2.36032 14.421 2.21967 14.2803C2.07902 14.1397 2 13.9489 2 13.75Z" fill="url(#paint1_linear_154_14)"/>
<path d="M6 16.75C6 16.5511 6.07902 16.3603 6.21967 16.2197C6.36032 16.079 6.55109 16 6.75 16H17.25C17.4489 16 17.6397 16.079 17.7803 16.2197C17.921 16.3603 18 16.5511 18 16.75C18 16.9489 17.921 17.1397 17.7803 17.2803C17.6397 17.421 17.4489 17.5 17.25 17.5H6.75C6.55109 17.5 6.36032 17.421 6.21967 17.2803C6.07902 17.1397 6 16.9489 6 16.75Z" fill="#C55D5D"/>
<path d="M6 16.75C6 16.5511 6.07902 16.3603 6.21967 16.2197C6.36032 16.079 6.55109 16 6.75 16H17.25C17.4489 16 17.6397 16.079 17.7803 16.2197C17.921 16.3603 18 16.5511 18 16.75C18 16.9489 17.921 17.1397 17.7803 17.2803C17.6397 17.421 17.4489 17.5 17.25 17.5H6.75C6.55109 17.5 6.36032 17.421 6.21967 17.2803C6.07902 17.1397 6 16.9489 6 16.75Z" fill="url(#paint2_linear_154_14)"/>
<path d="M10 19.75C10 19.5511 10.079 19.3603 10.2197 19.2197C10.3603 19.079 10.5511 19 10.75 19H13.25C13.4489 19 13.6397 19.079 13.7803 19.2197C13.921 19.3603 14 19.5511 14 19.75C14 19.9489 13.921 20.1397 13.7803 20.2803C13.6397 20.421 13.4489 20.5 13.25 20.5H10.75C10.5511 20.5 10.3603 20.421 10.2197 20.2803C10.079 20.1397 10 19.9489 10 19.75Z" fill="#C55D5D"/>
<path d="M10 19.75C10 19.5511 10.079 19.3603 10.2197 19.2197C10.3603 19.079 10.5511 19 10.75 19H13.25C13.4489 19 13.6397 19.079 13.7803 19.2197C13.921 19.3603 14 19.5511 14 19.75C14 19.9489 13.921 20.1397 13.7803 20.2803C13.6397 20.421 13.4489 20.5 13.25 20.5H10.75C10.5511 20.5 10.3603 20.421 10.2197 20.2803C10.079 20.1397 10 19.9489 10 19.75Z" fill="url(#paint3_linear_154_14)"/>
<path d="M12 2C12.1989 2 12.3897 2.07902 12.5303 2.21967C12.671 2.36032 12.75 2.55109 12.75 2.75V4.5C12.75 4.69891 12.671 4.88968 12.5303 5.03033C12.3897 5.17098 12.1989 5.25 12 5.25C11.8011 5.25 11.6103 5.17098 11.4697 5.03033C11.329 4.88968 11.25 4.69891 11.25 4.5V2.75C11.25 2.55109 11.329 2.36032 11.4697 2.21967C11.6103 2.07902 11.8011 2 12 2Z" fill="#C55D5D"/>
<path d="M12 2C12.1989 2 12.3897 2.07902 12.5303 2.21967C12.671 2.36032 12.75 2.55109 12.75 2.75V4.5C12.75 4.69891 12.671 4.88968 12.5303 5.03033C12.3897 5.17098 12.1989 5.25 12 5.25C11.8011 5.25 11.6103 5.17098 11.4697 5.03033C11.329 4.88968 11.25 4.69891 11.25 4.5V2.75C11.25 2.55109 11.329 2.36032 11.4697 2.21967C11.6103 2.07902 11.8011 2 12 2Z" fill="url(#paint4_linear_154_14)"/>
<path d="M4.71995 4.72001C4.86058 4.57956 5.0512 4.50067 5.24995 4.50067C5.4487 4.50067 5.63933 4.57956 5.77995 4.72001L7.02995 5.97001C7.16243 6.11219 7.23455 6.30023 7.23113 6.49453C7.2277 6.68884 7.14899 6.87422 7.01157 7.01163C6.87416 7.14905 6.68877 7.22776 6.49447 7.23119C6.30017 7.23461 6.11213 7.16249 5.96995 7.03001L4.71995 5.78001C4.5795 5.63939 4.50061 5.44876 4.50061 5.25001C4.50061 5.05126 4.5795 4.86064 4.71995 4.72001Z" fill="#C55D5D"/>
<path d="M4.71995 4.72001C4.86058 4.57956 5.0512 4.50067 5.24995 4.50067C5.4487 4.50067 5.63933 4.57956 5.77995 4.72001L7.02995 5.97001C7.16243 6.11219 7.23455 6.30023 7.23113 6.49453C7.2277 6.68884 7.14899 6.87422 7.01157 7.01163C6.87416 7.14905 6.68877 7.22776 6.49447 7.23119C6.30017 7.23461 6.11213 7.16249 5.96995 7.03001L4.71995 5.78001C4.5795 5.63939 4.50061 5.44876 4.50061 5.25001C4.50061 5.05126 4.5795 4.86064 4.71995 4.72001Z" fill="url(#paint5_linear_154_14)"/>
<path d="M18.22 4.72003C18.3621 4.58755 18.5502 4.51543 18.7445 4.51885C18.9388 4.52228 19.1242 4.60099 19.2616 4.73841C19.399 4.87582 19.4777 5.06121 19.4811 5.25551C19.4846 5.44981 19.4124 5.63785 19.28 5.78003L18.03 7.03003C17.8878 7.16251 17.6997 7.23463 17.5054 7.2312C17.3111 7.22778 17.1258 7.14906 16.9883 7.01165C16.8509 6.87424 16.7722 6.68885 16.7688 6.49455C16.7654 6.30025 16.8375 6.1122 16.97 5.97003L18.22 4.72003Z" fill="#C55D5D"/>
<path d="M18.22 4.72003C18.3621 4.58755 18.5502 4.51543 18.7445 4.51885C18.9388 4.52228 19.1242 4.60099 19.2616 4.73841C19.399 4.87582 19.4777 5.06121 19.4811 5.25551C19.4846 5.44981 19.4124 5.63785 19.28 5.78003L18.03 7.03003C17.8878 7.16251 17.6997 7.23463 17.5054 7.2312C17.3111 7.22778 17.1258 7.14906 16.9883 7.01165C16.8509 6.87424 16.7722 6.68885 16.7688 6.49455C16.7654 6.30025 16.8375 6.1122 16.97 5.97003L18.22 4.72003Z" fill="url(#paint6_linear_154_14)"/>
<defs>
<linearGradient id="paint0_linear_154_14" x1="10.31" y1="6.1165" x2="14.0635" y2="14.2515" gradientUnits="userSpaceOnUse">
<stop stop-color="#FFE580"/>
<stop offset="0.273" stop-color="#FFBF70"/>
<stop offset="0.57" stop-color="#FFA342"/>
<stop offset="0.96" stop-color="#FA6673"/>
</linearGradient>
<linearGradient id="paint1_linear_154_14" x1="0.531" y1="13" x2="22" y2="13" gradientUnits="userSpaceOnUse">
<stop offset="0.061" stop-color="#0FAFFF"/>
<stop offset="1" stop-color="#0094F0"/>
</linearGradient>
<linearGradient id="paint2_linear_154_14" x1="0.531" y1="13" x2="22" y2="13" gradientUnits="userSpaceOnUse">
<stop offset="0.061" stop-color="#0FAFFF"/>
<stop offset="1" stop-color="#0094F0"/>
</linearGradient>
<linearGradient id="paint3_linear_154_14" x1="0.531" y1="13" x2="22" y2="13" gradientUnits="userSpaceOnUse">
<stop offset="0.061" stop-color="#0FAFFF"/>
<stop offset="1" stop-color="#0094F0"/>
</linearGradient>
<linearGradient id="paint4_linear_154_14" x1="9.6955" y1="1.7125" x2="12.663" y2="12.6525" gradientUnits="userSpaceOnUse">
<stop stop-color="#FFE580"/>
<stop offset="0.273" stop-color="#FFBF70"/>
<stop offset="0.57" stop-color="#FFA342"/>
<stop offset="0.815" stop-color="#FA6673"/>
</linearGradient>
<linearGradient id="paint5_linear_154_14" x1="9.69545" y1="1.71251" x2="12.6629" y2="12.6525" gradientUnits="userSpaceOnUse">
<stop stop-color="#FFE580"/>
<stop offset="0.273" stop-color="#FFBF70"/>
<stop offset="0.57" stop-color="#FFA342"/>
<stop offset="0.815" stop-color="#FA6673"/>
</linearGradient>
<linearGradient id="paint6_linear_154_14" x1="9.69547" y1="1.71253" x2="12.663" y2="12.6525" gradientUnits="userSpaceOnUse">
<stop stop-color="#FFE580"/>
<stop offset="0.273" stop-color="#FFBF70"/>
<stop offset="0.57" stop-color="#FFA342"/>
<stop offset="0.815" stop-color="#FA6673"/>
</linearGradient>
</defs>
</svg>
