<svg width="24" height="24" viewBox="0 0 24 24" fill="none" xmlns="http://www.w3.org/2000/svg">
<path d="M14.865 13.443H16.786M14.865 8.64H16.786M14.865 3.836H16.786" stroke="#191919" stroke-linecap="round" stroke-linejoin="round"/>
<path d="M12.953 15.864V2.91399C12.953 2.4065 12.7514 1.91979 12.3925 1.56094C12.0337 1.20209 11.547 1.00049 11.0395 1.00049C10.532 1.00049 10.0453 1.20209 9.68643 1.56094C9.32758 1.91979 9.12598 2.4065 9.12598 2.91399V15.864C8.39699 16.2852 7.82732 16.9351 7.50531 17.713C7.1833 18.4909 7.12694 19.3533 7.34496 20.1665C7.56299 20.9797 8.04322 21.6982 8.7112 22.2107C9.37917 22.7232 10.1976 23.001 11.0395 23.001C11.8814 23.001 12.6998 22.7232 13.3678 22.2107C14.0357 21.6982 14.516 20.9797 14.734 20.1665C14.952 19.3533 14.8957 18.4909 14.5736 17.713C14.2516 16.9351 13.682 16.2852 12.953 15.864Z" fill="#FF808C"/>
<path d="M11.039 20.128C11.2926 20.128 11.5357 20.0273 11.715 19.848C11.8943 19.6687 11.995 19.4256 11.995 19.172C11.995 18.9185 11.8943 18.6753 11.715 18.496C11.5357 18.3167 11.2926 18.216 11.039 18.216C10.7855 18.216 10.5423 18.3167 10.363 18.496C10.1837 18.6753 10.083 18.9185 10.083 19.172C10.083 19.4256 10.1837 19.6687 10.363 19.848C10.5423 20.0273 10.7855 20.128 11.039 20.128Z" fill="#FFEF5E" stroke="#191919" stroke-linecap="round" stroke-linejoin="round"/>
<path d="M11.04 1.00098C10.7887 1.00058 10.5399 1.04976 10.3076 1.1457C10.0754 1.24163 9.86444 1.38244 9.68673 1.56005C9.50903 1.73766 9.36811 1.94859 9.27206 2.18075C9.176 2.4129 9.12669 2.66173 9.12695 2.91298V7.91098H12.952V2.91398C12.9523 2.6629 12.9032 2.41421 12.8074 2.18213C12.7116 1.95005 12.571 1.73914 12.3936 1.56147C12.2162 1.38379 12.0055 1.24283 11.7736 1.14666C11.5416 1.05048 11.293 1.00098 11.042 1.00098H11.04Z" fill="white"/>
<path d="M11.04 18.215V3.86999M12.953 15.864V2.91399C12.953 2.4065 12.7514 1.91979 12.3925 1.56094C12.0337 1.20209 11.547 1.00049 11.0395 1.00049C10.532 1.00049 10.0453 1.20209 9.68643 1.56094C9.32758 1.91979 9.12598 2.4065 9.12598 2.91399V15.864C8.39699 16.2852 7.82732 16.9351 7.50531 17.713C7.1833 18.4909 7.12694 19.3533 7.34496 20.1665C7.56299 20.9797 8.04322 21.6982 8.7112 22.2107C9.37917 22.7232 10.1976 23.001 11.0395 23.001C11.8814 23.001 12.6998 22.7232 13.3678 22.2107C14.0357 21.6982 14.516 20.9797 14.734 20.1665C14.952 19.3533 14.8957 18.4909 14.5736 17.713C14.2516 16.9351 13.682 16.2852 12.953 15.864Z" stroke="#191919" stroke-linecap="round" stroke-linejoin="round"/>
</svg>
