<svg width="18" height="18" viewBox="0 0 18 18" fill="none" xmlns="http://www.w3.org/2000/svg">
<path d="M1 18H17L11.5 9.5H6.5L1 18Z" fill="#A7A9AC"/>
<path d="M2.5 18H15.5L10.5 9.5H7.5L2.5 18Z" fill="#58595B"/>
<path d="M4 18H14L9.5 9.5H8.5L4 18Z" fill="#808285"/>
<path d="M14 17.5C14 17.6326 13.9473 17.7598 13.8536 17.8536C13.7598 17.9473 13.6326 18 13.5 18H4.5C4.36739 18 4.24021 17.9473 4.14645 17.8536C4.05268 17.7598 4 17.6326 4 17.5C4 17.3674 4.05268 17.2402 4.14645 17.1464C4.24021 17.0527 4.36739 17 4.5 17H13.5C13.6326 17 13.7598 17.0527 13.8536 17.1464C13.9473 17.2402 14 17.3674 14 17.5ZM13 15.5C13 15.6326 12.9473 15.7598 12.8536 15.8536C12.7598 15.9473 12.6326 16 12.5 16H5.5C5.36739 16 5.24021 15.9473 5.14645 15.8536C5.05268 15.7598 5 15.6326 5 15.5C5 15.3674 5.05268 15.2402 5.14645 15.1464C5.24021 15.0527 5.36739 15 5.5 15H12.5C12.6326 15 12.7598 15.0527 12.8536 15.1464C12.9473 15.2402 13 15.3674 13 15.5Z" fill="#A7A9AC"/>
<path d="M13.538 12.65L11.5 9.5H6.5L4.462 12.65C5.4065 13.9085 6.861 14.9995 9 14.9995C11.1385 14.9995 12.594 13.908 13.538 12.65Z" fill="#58595B"/>
<path d="M9 0C4.5 0 3 1.5 3 4.5V8.5C3 9.4995 4.5 14 9 14C13.5 14 15 9.4995 15 8.5V4.5C15 1.5 13.5 0 9 0Z" fill="#A7A9AC"/>
<path d="M4 5.5C4 1 6.2385 0.5 9 0.5C11.7615 0.5 14 1 14 5.5C14 8.5 11.7615 11 9 11C6.2385 10.9995 4 8.5 4 5.5Z" fill="#E6E7E8"/>
<path d="M9 10.9995C9.821 10.9995 10.5925 10.7745 11.2765 10.3855C10.885 9.8645 10.015 9.5 9 9.5C7.985 9.5 7.1155 9.8645 6.724 10.386C7.407 10.7745 8.1795 10.9995 9 10.9995Z" fill="#FFAC33"/>
<path d="M9.5 2.4985V4.981C11.244 4.865 12.5 4.1705 12.5 3.7495V2.9165C12.5 2.521 10.654 2.4975 9.5 2.4985ZM8.5 2.4985C7.346 2.4975 5.5 2.5205 5.5 2.9165V3.75C5.5 4.171 6.756 4.8655 8.5 4.9815V2.4985Z" fill="#55ACEE"/>
<path d="M3 5C3 5 3 6.5 5 9.5C5 9.5 3 8.5 3 6.5V5ZM15 5C15 5 15 6.5 13 9.5C13 9.5 15 8.5 15 6.5V5Z" fill="#226699"/>
</svg>
