<svg width="20" height="20" viewBox="0 0 20 20" fill="none" xmlns="http://www.w3.org/2000/svg">
<path d="M5.75 17H14.25C14.5152 17 14.7696 16.8946 14.9571 16.7071C15.1446 16.5196 15.25 16.2652 15.25 16V5.125C15.25 5.09185 15.2368 5.06005 15.2134 5.03661C15.1899 5.01317 15.1582 5 15.125 5H4.875C4.84185 5 4.81005 5.01317 4.78661 5.03661C4.76317 5.06005 4.75 5.09185 4.75 5.125V16C4.75 16.2652 4.85536 16.5196 5.04289 16.7071C5.23043 16.8946 5.48478 17 5.75 17Z" fill="#56CCF2"/>
<path d="M8.25 7.5V14.5M11.75 7.5V14.5M16.25 5H3.75" stroke="#2F80ED" stroke-linecap="round" stroke-linejoin="round"/>
<path d="M6.96374 4.99975L6.57274 4.688C6.51405 4.76159 6.47733 4.85025 6.4668 4.94378C6.45626 5.03732 6.47234 5.13192 6.51319 5.21673C6.55403 5.30153 6.61799 5.37308 6.69769 5.42314C6.7774 5.47321 6.86962 5.49976 6.96374 5.49975V4.99975ZM13.0362 4.99975V5.49975C13.1303 5.49972 13.2225 5.47313 13.3022 5.42304C13.3819 5.37296 13.4458 5.3014 13.4866 5.21661C13.5274 5.13182 13.5435 5.03723 13.5329 4.94372C13.5224 4.85021 13.4857 4.76157 13.427 4.688L13.0362 4.99975ZM8.48124 3.09675V2.59675C8.40618 2.59674 8.33207 2.61364 8.26443 2.64618C8.19678 2.67873 8.13733 2.72609 8.09049 2.78475L8.48124 3.09675ZM11.5187 3.09675L11.9095 2.78475C11.8626 2.72605 11.8031 2.67868 11.7354 2.64613C11.6678 2.61358 11.5936 2.5967 11.5185 2.59675L11.5187 3.09675ZM6.96374 5.49975H13.0362V4.49975H6.96374V5.49975ZM7.35474 5.3115L8.87224 3.4085L8.09049 2.78475L6.57274 4.688L7.35474 5.3115ZM8.48124 3.5965H11.5187V2.5965H8.48124V3.5965ZM11.1277 3.4085L12.6452 5.3115L13.427 4.688L11.9095 2.785L11.1277 3.4085Z" fill="#2F80ED"/>
</svg>
