<svg width="16" height="16" viewBox="0 0 16 16" fill="none" xmlns="http://www.w3.org/2000/svg">
<g clip-path="url(#clip0_111_37)">
<path d="M8.857 6.271L11.685 3.44275L12.1448 3.90225L9.31625 6.73075L8.857 6.271Z" fill="#D0D0D0"/>
<path d="M9.175 6.575C7.975 5.375 8.2 4.275 8.6 3.45L0.675003 15L12.425 7C11.625 7.375 10.325 7.7 9.175 6.575Z" fill="#F2B200"/>
<path d="M5.4 2.775C4.675 2.05 4.325 1.1 4.475 0.325001L0.675003 15L8.7 3.275C7.95 4.05 6.45 3.825 5.4 2.775Z" fill="#FFCE31"/>
<path d="M15.4 11.25C14.625 11.375 13.675 11.05 12.95 10.325C11.9 9.275 11.675 7.775 12.45 7L0.699997 15L15.4 11.25Z" fill="#FF8736"/>
<path d="M11.7 3.425L11.725 3.45L12.15 3.875L12.225 3.95L13.8 2.375C14.05 2.125 14.55 2.2 14.9 2.525C15.25 2.875 15.325 3.35 15.05 3.625C14.925 3.75 14.95 4 15.125 4.175C15.3 4.35 15.55 4.375 15.675 4.25C16.2 3.725 16.05 2.75 15.35 2.075C14.65 1.375 13.675 1.225 13.175 1.75L11.6 3.325L11.7 3.425ZM0.125003 15.575C0.250003 15.7 0.425002 15.725 0.525002 15.625L1.3 14.85C1.25 14.75 1.2 14.65 1.125 14.575C1.05 14.5 0.950003 14.425 0.850003 14.4L0.0750025 15.175C-0.0249975 15.25 2.51085e-06 15.45 0.125003 15.575ZM11.1 5.325C11.075 5.325 11.025 5.3 11 5.25L10.9 5.15L11.2 4.85C11.15 5.125 11.225 5.325 11.1 5.325Z" fill="#3E4347"/>
</g>
<defs>
<clipPath id="clip0_111_37">
<rect width="16" height="16" fill="white"/>
</clipPath>
</defs>
</svg>
